<svg width="200" height="200" viewBox="0 0 200 200" xmlns="http://www.w3.org/2000/svg">
  <style>
    .steam { animation: steam 2s ease-out infinite; }
    .eye { animation: blink 4s infinite; }
    .circuit { animation: glow 2s ease-in-out infinite; }
    
    @keyframes steam {
      0% { transform: translateY(0) scale(1); opacity: 0.8; }
      100% { transform: translateY(-20px) scale(1.5); opacity: 0; }
    }
    
    @keyframes blink {
      0%, 48%, 52%, 100% { transform: scaleY(1); }
      50% { transform: scaleY(0.1); }
    }
    
    @keyframes glow {
      0%, 100% { opacity: 0.3; }
      50% { opacity: 1; }
    }
  </style>
  
  <!-- Cup Base -->
  <path d="M 60 80 L 50 160 C 50 180 150 180 150 160 L 140 80" 
        fill="#1e3c72" stroke="none"/>
  
  <!-- Cup Top Rim -->
  <ellipse cx="100" cy="80" rx="40" ry="15" 
           fill="#1e3c72" stroke="none"/>
  
  <!-- Handle -->
  <path d="M 140 100 C 170 100 170 140 140 140" 
        fill="none" stroke="#1e3c72" stroke-width="12"/>
  
  <!-- Robot Face -->
  <circle cx="85" cy="120" r="8" fill="#00ff95" class="eye"/>
  <circle cx="115" cy="120" r="8" fill="#00ff95" class="eye"/>
  <path d="M 85 140 Q 100 150 115 140" 
        stroke="#00ff95" stroke-width="4" fill="none"/>
  
  <!-- Circuit Pattern -->
  <path d="M 70 100 H 90 V 110 H 80" 
        stroke="#00ff95" stroke-width="2" class="circuit"/>
  <path d="M 130 100 H 110 V 110 H 120" 
        stroke="#00ff95" stroke-width="2" class="circuit"/>
  
  <!-- Steam -->
  <path class="steam" d="M 85 50 Q 100 30 115 50" 
        stroke="white" stroke-width="3" fill="none"/>
  <path class="steam" d="M 75 60 Q 90 40 105 60" 
        stroke="white" stroke-width="3" fill="none" style="animation-delay: 0.5s"/>
  <path class="steam" d="M 95 45 Q 110 25 125 45" 
        stroke="white" stroke-width="3" fill="none" style="animation-delay: 1s"/>
  
  <!-- Binary Numbers -->
  <text x="65" y="130" fill="#00ff95" font-family="monospace" font-size="8" class="circuit">
    101
  </text>
  <text x="120" y="130" fill="#00ff95" font-family="monospace" font-size="8" class="circuit">
    010
  </text>
</svg> 